:SAMPLES-PER-SECOND 30
:FRAME-RANGE 1-2775
:FULLY-SPECIFIED
:DEGREES
1648
root  -0.4307 40.161 1.50191 -169.317 3.95056 -176.833
RightUpLeg  -7.83886 -2.61278 -2.65511
RightLeg  3.3971 -9.7535 -0.513936
RightFoot  -3.11083 -0.662823 8.89125
RightToes  1.218e-010 1.26228e-014 -6.01869e-014
Spine  -6.57054 -0.152869 0.0759542
Spine1  5.41158 2.91969 -12.5901
HEad  -10.1311 9.13339 -9.76408
LeftShoulder1  3.27729 -13.9765 -12.0788
LeftArm  6.62402 -39.0431 -17.0136
LeftForeArm  2.39677 -62.3552 -22.0464
LeftHand  0.510533 -1.81139 -8.08967
RightShoulder  0.510773 12.2423 -5.76076
RightArm  -4.09118 49.3119 7.3189
RightForeArm  11.3529 61.1513 19.8892
RightHand  -0.0268106 -1.41859 -0.565024
LeftUpLeg  -16.5439 5.49387 7.60661
LeftLeg  6.61638 -12.9938 -0.68596
LeftFoot  -0.339884 0.389402 -3.92789
LeftToes  5.08156e-010 -6.90346e-011 -6.33378e-011
1649
root  -0.408377 40.1691 1.43401 -169.388 3.75562 -176.924
RightUpLeg  -7.42067 -2.59187 -2.676
RightLeg  2.98843 -10.017 -0.530105
RightFoot  -3.09114 -0.666913 8.93662
RightToes  1.218e-010 1.26228e-014 -6.01869e-014
Spine  -6.41436 0.147355 0.421598
Spine1  5.01093 3.23097 -12.8893
HEad  -9.45293 8.87366 -9.78036
LeftShoulder1  3.27685 -14.1346 -11.8846
LeftArm  6.73402 -39.1155 -17.8333
LeftForeArm  3.10134 -62.4516 -22.0727
LeftHand  0.499221 -1.73892 -7.9952
RightShoulder  0.521751 11.9778 -5.61513
RightArm  -3.54118 49.0996 7.4294
RightForeArm  11.2272 61.5654 20.2944
RightHand  -0.0270802 -1.47814 -0.504459
LeftUpLeg  -16.3506 5.34586 7.51726
LeftLeg  6.48508 -13.1333 -0.590082
LeftFoot  -0.328616 0.394569 -4.02764
LeftToes  5.08156e-010 -6.90346e-011 -6.33378e-011
1650
root  -0.396873 40.1807 1.35609 -169.478 3.57254 -177.133
RightUpLeg  -7.13364 -2.58496 -2.79965
RightLeg  2.88466 -10.2683 -0.688409
RightFoot  -3.15989 -0.673202 9.0926
RightToes  1.218e-010 1.26228e-014 -6.01869e-014
Spine  -6.42442 0.421485 0.44264
Spine1  4.82918 3.49668 -12.9192
HEad  -8.42184 8.57538 -9.70286
LeftShoulder1  3.34379 -14.2555 -12.1624
LeftArm  7.05381 -39.2382 -18.3921
LeftForeArm  2.9567 -62.5273 -22.1694
LeftHand  0.506356 -1.78914 -8.10925
RightShoulder  0.524332 11.7851 -5.547
RightArm  -2.78486 48.8282 7.68265
RightForeArm  11.7576 62.3879 21.0499
RightHand  -0.0255629 -1.73302 -0.519423
LeftUpLeg  -16.0398 5.38745 7.38064
LeftLeg  6.19542 -13.362 -0.732287
LeftFoot  -0.233185 0.387884 -3.96288
LeftToes  5.08156e-010 -6.90346e-011 -6.33378e-011
1651
root  -0.394772 40.1774 1.28361 -169.515 3.04138 -177.312
RightUpLeg  -7.02483 -2.7965 -3.00385
RightLeg  3.15351 -10.5582 -0.655439
RightFoot  -3.41988 -0.658559 9.15518
RightToes  1.218e-010 1.26228e-014 -6.01869e-014
Spine  -6.85119 0.494542 0.422601
Spine1  5.22199 3.62001 -12.951
HEad  -7.66763 8.13771 -9.44545
LeftShoulder1  3.42237 -14.3999 -12.4802
LeftArm  6.94687 -39.2168 -18.6312
LeftForeArm  3.68558 -62.7603 -22.3417
LeftHand  0.51174 -1.82514 -8.0923
RightShoulder  0.561528 11.4839 -5.17964
RightArm  -1.98753 48.7851 7.70416
RightForeArm  12.47 63.4919 22.148
RightHand  -0.0211382 -1.8898 -0.365281
LeftUpLeg  -15.9728 5.23496 7.18131
LeftLeg  6.09476 -13.7472 -0.746834
LeftFoot  -0.200502 0.378169 -3.8602
LeftToes  5.08156e-010 -6.90346e-011 -6.33378e-011
1652
root  -0.381899 40.1637 1.24671 -169.553 2.03946 -177.375
RightUpLeg  -6.95254 -2.9562 -3.04508
RightLeg  3.56341 -11.3474 -0.620731
RightFoot  -3.73278 -0.63328 9.12161
RightToes  1.218e-010 1.26228e-014 -6.01869e-014
Spine  -7.1226 0.255263 0.122862
Spine1  5.62996 3.3147 -12.4505
HEad  -6.99914 7.82226 -9.16928
LeftShoulder1  3.44825 -14.3027 -12.7612
LeftArm  6.81046 -39.4565 -18.8475
LeftForeArm  4.18117 -63.2435 -22.824
LeftHand  0.510894 -1.74054 -8.183
RightShoulder  0.571007 11.4368 -5.09236
RightArm  -1.52051 48.3388 7.74397
RightForeArm  13.8781 64.9988 23.7732
RightHand  -0.0133128 -2.06615 -0.072692
LeftUpLeg  -16.2213 5.14071 7.09941
LeftLeg  6.33551 -14.6442 -0.913835
LeftFoot  -0.270636 0.3741 -3.84393
LeftToes  5.08156e-010 -6.90346e-011 -6.33378e-011
1653
root  -0.372299 40.1632 1.20346 -169.673 1.28421 -177.496
RightUpLeg  -6.76212 -3.06807 -3.1208
RightLeg  3.8437 -11.9619 -0.679046
RightFoot  -3.93005 -0.623674 9.19607
RightToes  1.218e-010 1.26228e-014 -6.01869e-014
Spine  -7.12867 0.098945 -0.0538094
Spine1  5.6684 3.12935 -12.2951
HEad  -6.36459 7.56182 -8.61173
LeftShoulder1  3.444 -14.2893 -12.7511
LeftArm  6.72483 -39.2885 -19.0255
LeftForeArm  4.84391 -63.7973 -23.3913
LeftHand  0.49023 -1.58053 -8.04355
RightShoulder  0.59944 11.2952 -4.82702
RightArm  -1.03571 47.8992 8.0878
RightForeArm  15.5284 66.422 25.4928
RightHand  -0.00484211 -2.17423 0.258263
LeftUpLeg  -16.1463 4.99997 6.95834
LeftLeg  6.22725 -15.2687 -0.938196
LeftFoot  -0.202146 0.370753 -3.8265
LeftToes  5.08156e-010 -6.90346e-011 -6.33378e-011
1654
root  -0.365145 40.1619 1.17939 -169.692 0.623108 -177.582
RightUpLeg  -6.64814 -3.17676 -3.18037
RightLeg  3.96454 -12.4977 -0.671985
RightFoot  -4.06596 -0.616095 9.2347
RightToes  1.218e-010 1.26228e-014 -6.01869e-014
Spine  -7.1496 -0.0612664 -0.378803
Spine1  5.69019 2.89104 -11.889
HEad  -6.10251 7.49787 -8.2987
LeftShoulder1  3.42122 -14.1267 -12.8096
LeftArm  6.60317 -39.1721 -19.1183
LeftForeArm  5.70623 -64.277 -23.8712
LeftHand  0.492509 -1.6001 -8.05685
RightShoulder  0.618034 11.2699 -4.67269
RightArm  -0.694024 47.3033 8.23546
RightForeArm  17.3691 67.8869 27.5298
RightHand  -0.00343034 -2.49377 0.417285
LeftUpLeg  -16.1846 4.88722 6.85083
LeftLeg  6.1141 -15.8116 -0.959011
LeftFoot  -0.126855 0.364634 -3.74271
LeftToes  5.08156e-010 -6.90346e-011 -6.33378e-011
1655
root  -0.357202 40.1551 1.16637 -169.567 0.252136 -177.615
RightUpLeg  -6.67522 -3.18475 -3.18221
RightLeg  3.91938 -12.8541 -0.65155
RightFoot  -4.13617 -0.611955 9.25165
RightToes  1.218e-010 1.26228e-014 -6.01869e-014
Spine  -7.11875 -0.0396392 -0.329771
Spine1  5.43411 2.90067 -11.9531
HEad  -5.94392 7.40934 -8.02244
LeftShoulder1  3.3918 -14.0601 -12.7062
LeftArm  6.73491 -38.9754 -19.3979
LeftForeArm  6.16929 -64.7018 -24.3507
LeftHand  0.484114 -1.51348 -8.0259
RightShoulder  0.630916 11.2111 -4.5517
RightArm  -0.294679 46.5252 8.37984
RightForeArm  19.4657 69.2448 29.6856
RightHand  -0.00490398 -2.83873 0.451759
LeftUpLeg  -16.3941 4.78982 6.79439
LeftLeg  6.13267 -16.0593 -0.945529
LeftFoot  -0.123953 0.361971 -3.67874
LeftToes  5.08156e-010 -6.90346e-011 -6.33378e-011
1656
root  -0.359416 40.1641 1.17614 -169.48 0.109039 -177.634
RightUpLeg  -6.70493 -3.08073 -3.14221
RightLeg  3.78817 -13.1238 -0.731218
RightFoot  -4.01263 -0.623591 9.28956
RightToes  1.218e-010 1.26228e-014 -6.01869e-014
Spine  -6.93711 0.0457629 -0.310994
Spine1  5.18079 2.95249 -11.8978
HEad  -6.12576 7.3822 -7.98202
LeftShoulder1  3.33305 -13.832 -12.6165
LeftArm  6.82572 -38.9497 -19.6841
LeftForeArm  6.85766 -65.1602 -24.8665
LeftHand  0.475748 -1.40325 -8.02496
RightShoulder  0.64152 11.1638 -4.45174
RightArm  0.0549335 45.8945 8.25164
RightForeArm  21.5585 70.4563 31.9119
RightHand  -0.00725549 -3.12176 0.452638
LeftUpLeg  -16.4617 4.68834 6.74808
LeftLeg  5.96484 -16.1106 -0.863912
LeftFoot  0.00981726 0.373455 -3.75876
LeftToes  5.08156e-010 -6.90346e-011 -6.33378e-011
1657
root  -0.360428 40.1719 1.21049 -169.386 0.112244 -177.647
RightUpLeg  -6.78336 -3.06686 -3.15064
RightLeg  3.61652 -13.1537 -0.69821
RightFoot  -3.87917 -0.634244 9.29984
RightToes  1.218e-010 1.26228e-014 -6.01869e-014
Spine  -6.60903 0.211694 -0.140943
Spine1  4.79932 3.10827 -12.0378
HEad  -6.53127 7.21858 -8.09557
LeftShoulder1  3.28086 -13.6285 -12.5356
LeftArm  7.00362 -39.0168 -20.1032
LeftForeArm  6.83689 -65.3707 -25.1535
LeftHand  0.503829 -1.60557 -8.23761
RightShoulder  0.642698 11.161 -4.44143
RightArm  0.361306 45.1737 8.04265
RightForeArm  23.6055 71.6094 34.4102
RightHand  -0.0100987 -3.35256 0.46275
LeftUpLeg  -16.5053 4.56645 6.70156
LeftLeg  5.71389 -16.0019 -0.701022
LeftFoot  0.167241 0.390907 -3.88956
LeftToes  5.08156e-010 -6.90346e-011 -6.33378e-011
1658
root  -0.366676 40.1619 1.26602 -169.247 0.254761 -177.582
RightUpLeg  -7.09871 -3.07486 -3.1256
RightLeg  3.71743 -12.9254 -0.64812
RightFoot  -3.87644 -0.625507 9.16361
RightToes  1.218e-010 1.26228e-014 -6.01869e-014
Spine  -6.16042 0.387319 0.181724
Spine1  4.23884 3.29605 -12.3982
HEad  -6.94984 6.85771 -8.13493
LeftShoulder1  3.21636 -13.3777 -12.4319
LeftArm  7.24955 -39.1746 -20.6229
LeftForeArm  6.7637 -65.4219 -25.2329
LeftHand  0.496657 -1.54831 -8.19167
RightShoulder  0.671321 11.0678 -4.18079
RightArm  0.678038 44.8699 7.82007
RightForeArm  25.6198 72.5271 36.669
RightHand  -0.0134747 -3.57421 0.517089
LeftUpLeg  -16.8022 4.63708 6.77056
LeftLeg  5.90224 -15.8804 -0.775645
LeftFoot  0.133479 0.380648 -3.79698
LeftToes  5.08156e-010 -6.90346e-011 -6.33378e-011
1659
root  -0.368503 40.1507 1.33886 -169.102 0.50885 -177.559
RightUpLeg  -7.55208 -3.06549 -3.1069
RightLeg  3.99483 -12.7786 -0.689114
RightFoot  -3.91986 -0.621967 9.15837
RightToes  1.218e-010 1.26228e-014 -6.01869e-014
Spine  -5.84107 0.502041 0.399944
Spine1  3.97942 3.46815 -12.7879
HEad  -7.55466 6.50655 -8.17056
LeftShoulder1  3.07639 -12.8861 -12.1265
LeftArm  7.47138 -39.6251 -21.3577
LeftForeArm  6.30013 -65.4596 -25.3435
LeftHand  0.489989 -1.52898 -8.1048
RightShoulder  0.714377 11.1721 -3.87749
RightArm  0.739585 44.5981 7.51038
RightForeArm  27.386 73.2168 38.5641
RightHand  -0.0165642 -3.74799 0.549133
LeftUpLeg  -17.0707 4.63528 6.78944
LeftLeg  5.99858 -15.602 -0.746632
LeftFoot  0.164584 0.385045 -3.83215
LeftToes  5.08156e-010 -6.90346e-011 -6.33378e-011
1660
root  -0.375718 40.1472 1.42347 -168.927 0.714569 -177.512
RightUpLeg  -8.05784 -3.08008 -3.09195
RightLeg  4.28668 -12.5315 -0.698139
RightFoot  -3.86981 -0.62356 9.12653
RightToes  1.218e-010 1.26228e-014 -6.01869e-014
Spine  -5.43284 0.579154 0.600273
Spine1  3.63052 3.57158 -13.0815
HEad  -8.40017 6.12872 -8.14335
LeftShoulder1  2.9311 -12.3251 -11.8557
LeftArm  7.67086 -40.4058 -22.3651
LeftForeArm  5.89834 -65.3449 -25.2364
LeftHand  0.49499 -1.60063 -8.09734
RightShoulder  0.732691 11.2017 -3.74407
RightArm  0.963728 44.407 7.72178
RightForeArm  28.0979 73.4907 39.3863
RightHand  -0.0175341 -3.75016 0.71585
LeftUpLeg  -17.3393 4.70754 6.84286
LeftLeg  5.98217 -15.5127 -0.793732
LeftFoot  0.291781 0.407449 -4.01734
LeftToes  5.08156e-010 -6.90346e-011 -6.33378e-011
1661
root  -0.393291 40.1379 1.51809 -168.716 0.835205 -177.417
RightUpLeg  -8.50289 -3.05185 -3.02968
RightLeg  4.3659 -12.4585 -0.660381
RightFoot  -3.78965 -0.626234 9.07826
RightToes  1.218e-010 1.26228e-014 -6.01869e-014
Spine  -4.92858 0.624349 0.891537
Spine1  3.15821 3.62666 -13.3915
HEad  -9.4095 5.58299 -8.06317
LeftShoulder1  2.79084 -11.7438 -11.6286
LeftArm  8.03989 -41.3583 -23.7562
LeftForeArm  6.11141 -65.2925 -25.1383
LeftHand  0.445491 -1.39063 -7.5233
RightShoulder  0.774037 11.2774 -3.44852
RightArm  1.23196 44.2211 7.67409
RightForeArm  28.3152 73.7674 40.3985
RightHand  -0.0201387 -3.93903 0.77141
LeftUpLeg  -17.7049 4.58531 6.85758
LeftLeg  5.97864 -15.197 -0.600292
LeftFoot  0.351026 0.404687 -3.97339
LeftToes  5.08156e-010 -6.90346e-011 -6.33378e-011
